<mxfile host="Electron" modified="2023-08-01T18:37:47.340Z" agent="Mozilla/5.0 (Macintosh; Intel Mac OS X 10_15_7) AppleWebKit/537.36 (KHTML, like Gecko) draw.io/21.6.5 Chrome/114.0.5735.243 Electron/25.3.1 Safari/537.36" etag="i8xO_ty8vpi6E_izmuvN" version="21.6.5" type="device">
  <diagram id="R2lEEEUBdFMjLlhIrx00" name="Page-1">
    <mxGraphModel dx="1087" dy="1431" grid="1" gridSize="10" guides="1" tooltips="1" connect="1" arrows="1" fold="1" page="1" pageScale="1" pageWidth="850" pageHeight="1100" math="0" shadow="0" extFonts="Permanent Marker^https://fonts.googleapis.com/css?family=Permanent+Marker">
      <root>
        <mxCell id="0" />
        <mxCell id="1" parent="0" />
        <mxCell id="043abNqkf14DGO-CQPDc-1" value="customer" style="whiteSpace=wrap;html=1;align=center;" vertex="1" parent="1">
          <mxGeometry x="40" y="130" width="100" height="40" as="geometry" />
        </mxCell>
        <mxCell id="043abNqkf14DGO-CQPDc-2" value="tours" style="whiteSpace=wrap;html=1;align=center;" vertex="1" parent="1">
          <mxGeometry x="660" y="570" width="100" height="40" as="geometry" />
        </mxCell>
        <mxCell id="043abNqkf14DGO-CQPDc-3" value="books" style="shape=rhombus;perimeter=rhombusPerimeter;whiteSpace=wrap;html=1;align=center;" vertex="1" parent="1">
          <mxGeometry x="270" y="300" width="120" height="60" as="geometry" />
        </mxCell>
        <mxCell id="043abNqkf14DGO-CQPDc-4" value="" style="endArrow=none;html=1;rounded=0;exitX=1;exitY=1;exitDx=0;exitDy=0;entryX=0.5;entryY=0;entryDx=0;entryDy=0;" edge="1" parent="1" source="043abNqkf14DGO-CQPDc-1" target="043abNqkf14DGO-CQPDc-3">
          <mxGeometry relative="1" as="geometry">
            <mxPoint x="270" y="139.09" as="sourcePoint" />
            <mxPoint x="430" y="139.09" as="targetPoint" />
          </mxGeometry>
        </mxCell>
        <mxCell id="043abNqkf14DGO-CQPDc-5" value="M" style="resizable=0;html=1;whiteSpace=wrap;align=right;verticalAlign=bottom;" connectable="0" vertex="1" parent="043abNqkf14DGO-CQPDc-4">
          <mxGeometry x="1" relative="1" as="geometry">
            <mxPoint x="-160" y="-120" as="offset" />
          </mxGeometry>
        </mxCell>
        <mxCell id="043abNqkf14DGO-CQPDc-6" value="" style="endArrow=none;html=1;rounded=0;exitX=0.5;exitY=1;exitDx=0;exitDy=0;entryX=0.25;entryY=0;entryDx=0;entryDy=0;" edge="1" parent="1" source="043abNqkf14DGO-CQPDc-3" target="043abNqkf14DGO-CQPDc-2">
          <mxGeometry relative="1" as="geometry">
            <mxPoint x="530" y="139.09" as="sourcePoint" />
            <mxPoint x="600" y="150" as="targetPoint" />
          </mxGeometry>
        </mxCell>
        <mxCell id="043abNqkf14DGO-CQPDc-7" value="M" style="resizable=0;html=1;whiteSpace=wrap;align=right;verticalAlign=bottom;" connectable="0" vertex="1" parent="043abNqkf14DGO-CQPDc-6">
          <mxGeometry x="1" relative="1" as="geometry">
            <mxPoint x="5" y="-20" as="offset" />
          </mxGeometry>
        </mxCell>
        <mxCell id="043abNqkf14DGO-CQPDc-10" value="coordinator" style="whiteSpace=wrap;html=1;align=center;" vertex="1" parent="1">
          <mxGeometry x="150" y="570" width="100" height="40" as="geometry" />
        </mxCell>
        <mxCell id="043abNqkf14DGO-CQPDc-11" value="coordinate" style="shape=rhombus;perimeter=rhombusPerimeter;whiteSpace=wrap;html=1;align=center;" vertex="1" parent="1">
          <mxGeometry x="330" y="560" width="120" height="60" as="geometry" />
        </mxCell>
        <mxCell id="043abNqkf14DGO-CQPDc-13" value="" style="endArrow=none;html=1;rounded=0;exitX=1;exitY=0.5;exitDx=0;exitDy=0;entryX=0;entryY=0.5;entryDx=0;entryDy=0;" edge="1" parent="1" source="043abNqkf14DGO-CQPDc-10" target="043abNqkf14DGO-CQPDc-11">
          <mxGeometry relative="1" as="geometry">
            <mxPoint x="300" y="480" as="sourcePoint" />
            <mxPoint x="460" y="480" as="targetPoint" />
          </mxGeometry>
        </mxCell>
        <mxCell id="043abNqkf14DGO-CQPDc-14" value="1" style="resizable=0;html=1;whiteSpace=wrap;align=right;verticalAlign=bottom;" connectable="0" vertex="1" parent="043abNqkf14DGO-CQPDc-13">
          <mxGeometry x="1" relative="1" as="geometry">
            <mxPoint x="-60" y="30" as="offset" />
          </mxGeometry>
        </mxCell>
        <mxCell id="043abNqkf14DGO-CQPDc-15" value="" style="endArrow=none;html=1;rounded=0;entryX=0;entryY=0.5;entryDx=0;entryDy=0;exitX=1;exitY=0.5;exitDx=0;exitDy=0;" edge="1" parent="1" source="043abNqkf14DGO-CQPDc-11" target="043abNqkf14DGO-CQPDc-2">
          <mxGeometry relative="1" as="geometry">
            <mxPoint x="450" y="589.29" as="sourcePoint" />
            <mxPoint x="610" y="589.29" as="targetPoint" />
          </mxGeometry>
        </mxCell>
        <mxCell id="043abNqkf14DGO-CQPDc-16" value="M" style="resizable=0;html=1;whiteSpace=wrap;align=right;verticalAlign=bottom;" connectable="0" vertex="1" parent="043abNqkf14DGO-CQPDc-15">
          <mxGeometry x="1" relative="1" as="geometry">
            <mxPoint x="-10" y="-10" as="offset" />
          </mxGeometry>
        </mxCell>
        <mxCell id="043abNqkf14DGO-CQPDc-17" value="books" style="shape=rhombus;perimeter=rhombusPerimeter;whiteSpace=wrap;html=1;align=center;" vertex="1" parent="1">
          <mxGeometry x="20" y="770" width="120" height="60" as="geometry" />
        </mxCell>
        <mxCell id="043abNqkf14DGO-CQPDc-18" value="hotels" style="whiteSpace=wrap;html=1;align=center;" vertex="1" parent="1">
          <mxGeometry x="260" y="930" width="100" height="40" as="geometry" />
        </mxCell>
        <mxCell id="043abNqkf14DGO-CQPDc-19" value="" style="endArrow=none;html=1;rounded=0;exitX=0.5;exitY=1;exitDx=0;exitDy=0;entryX=0.5;entryY=0;entryDx=0;entryDy=0;" edge="1" parent="1" source="043abNqkf14DGO-CQPDc-10" target="043abNqkf14DGO-CQPDc-17">
          <mxGeometry relative="1" as="geometry">
            <mxPoint x="80" y="740" as="sourcePoint" />
            <mxPoint x="240" y="740" as="targetPoint" />
          </mxGeometry>
        </mxCell>
        <mxCell id="043abNqkf14DGO-CQPDc-20" value="M" style="resizable=0;html=1;whiteSpace=wrap;align=right;verticalAlign=bottom;" connectable="0" vertex="1" parent="043abNqkf14DGO-CQPDc-19">
          <mxGeometry x="1" relative="1" as="geometry">
            <mxPoint x="90" y="-130" as="offset" />
          </mxGeometry>
        </mxCell>
        <mxCell id="043abNqkf14DGO-CQPDc-21" value="" style="endArrow=none;html=1;rounded=0;entryX=0.5;entryY=0;entryDx=0;entryDy=0;exitX=0.5;exitY=1;exitDx=0;exitDy=0;" edge="1" parent="1" source="043abNqkf14DGO-CQPDc-17" target="043abNqkf14DGO-CQPDc-18">
          <mxGeometry relative="1" as="geometry">
            <mxPoint x="80" y="830" as="sourcePoint" />
            <mxPoint x="240" y="740" as="targetPoint" />
          </mxGeometry>
        </mxCell>
        <mxCell id="043abNqkf14DGO-CQPDc-22" value="M" style="resizable=0;html=1;whiteSpace=wrap;align=right;verticalAlign=bottom;" connectable="0" vertex="1" parent="043abNqkf14DGO-CQPDc-21">
          <mxGeometry x="1" relative="1" as="geometry">
            <mxPoint x="-10" y="-10" as="offset" />
          </mxGeometry>
        </mxCell>
        <mxCell id="043abNqkf14DGO-CQPDc-23" value="assign" style="shape=rhombus;perimeter=rhombusPerimeter;whiteSpace=wrap;html=1;align=center;" vertex="1" parent="1">
          <mxGeometry x="650" y="340" width="120" height="60" as="geometry" />
        </mxCell>
        <mxCell id="043abNqkf14DGO-CQPDc-24" value="guide" style="whiteSpace=wrap;html=1;align=center;" vertex="1" parent="1">
          <mxGeometry x="660" y="130" width="100" height="40" as="geometry" />
        </mxCell>
        <mxCell id="043abNqkf14DGO-CQPDc-27" value="" style="endArrow=none;html=1;rounded=0;exitX=0.5;exitY=1;exitDx=0;exitDy=0;entryX=0.5;entryY=0;entryDx=0;entryDy=0;" edge="1" parent="1" source="043abNqkf14DGO-CQPDc-23" target="043abNqkf14DGO-CQPDc-2">
          <mxGeometry relative="1" as="geometry">
            <mxPoint x="290" y="690" as="sourcePoint" />
            <mxPoint x="450" y="690" as="targetPoint" />
          </mxGeometry>
        </mxCell>
        <mxCell id="043abNqkf14DGO-CQPDc-28" value="1" style="resizable=0;html=1;whiteSpace=wrap;align=right;verticalAlign=bottom;" connectable="0" vertex="1" parent="043abNqkf14DGO-CQPDc-27">
          <mxGeometry x="1" relative="1" as="geometry">
            <mxPoint x="20" y="-10" as="offset" />
          </mxGeometry>
        </mxCell>
        <mxCell id="043abNqkf14DGO-CQPDc-31" value="" style="endArrow=none;html=1;rounded=0;entryX=0.5;entryY=1;entryDx=0;entryDy=0;exitX=0.5;exitY=0;exitDx=0;exitDy=0;" edge="1" parent="1" source="043abNqkf14DGO-CQPDc-23" target="043abNqkf14DGO-CQPDc-24">
          <mxGeometry relative="1" as="geometry">
            <mxPoint x="300" y="630" as="sourcePoint" />
            <mxPoint x="460" y="630" as="targetPoint" />
          </mxGeometry>
        </mxCell>
        <mxCell id="043abNqkf14DGO-CQPDc-32" value="1" style="resizable=0;html=1;whiteSpace=wrap;align=right;verticalAlign=bottom;" connectable="0" vertex="1" parent="043abNqkf14DGO-CQPDc-31">
          <mxGeometry x="1" relative="1" as="geometry">
            <mxPoint x="20" y="31" as="offset" />
          </mxGeometry>
        </mxCell>
        <mxCell id="043abNqkf14DGO-CQPDc-33" value="book" style="shape=rhombus;perimeter=rhombusPerimeter;whiteSpace=wrap;html=1;align=center;" vertex="1" parent="1">
          <mxGeometry x="210" y="120" width="120" height="60" as="geometry" />
        </mxCell>
        <mxCell id="043abNqkf14DGO-CQPDc-35" value="Equipment" style="whiteSpace=wrap;html=1;align=center;" vertex="1" parent="1">
          <mxGeometry x="390" y="130" width="100" height="40" as="geometry" />
        </mxCell>
        <mxCell id="043abNqkf14DGO-CQPDc-36" value="" style="endArrow=none;html=1;rounded=0;exitX=1;exitY=0.5;exitDx=0;exitDy=0;entryX=0;entryY=0.5;entryDx=0;entryDy=0;" edge="1" parent="1" source="043abNqkf14DGO-CQPDc-1" target="043abNqkf14DGO-CQPDc-33">
          <mxGeometry relative="1" as="geometry">
            <mxPoint x="210" y="330" as="sourcePoint" />
            <mxPoint x="370" y="330" as="targetPoint" />
          </mxGeometry>
        </mxCell>
        <mxCell id="043abNqkf14DGO-CQPDc-37" value="M" style="resizable=0;html=1;whiteSpace=wrap;align=right;verticalAlign=bottom;" connectable="0" vertex="1" parent="043abNqkf14DGO-CQPDc-36">
          <mxGeometry x="1" relative="1" as="geometry">
            <mxPoint x="-40" y="-10" as="offset" />
          </mxGeometry>
        </mxCell>
        <mxCell id="043abNqkf14DGO-CQPDc-38" value="" style="endArrow=none;html=1;rounded=0;exitX=1;exitY=0.5;exitDx=0;exitDy=0;entryX=0;entryY=0.5;entryDx=0;entryDy=0;" edge="1" parent="1" source="043abNqkf14DGO-CQPDc-33" target="043abNqkf14DGO-CQPDc-35">
          <mxGeometry relative="1" as="geometry">
            <mxPoint x="210" y="330" as="sourcePoint" />
            <mxPoint x="370" y="330" as="targetPoint" />
          </mxGeometry>
        </mxCell>
        <mxCell id="043abNqkf14DGO-CQPDc-39" value="M" style="resizable=0;html=1;whiteSpace=wrap;align=right;verticalAlign=bottom;" connectable="0" vertex="1" parent="043abNqkf14DGO-CQPDc-38">
          <mxGeometry x="1" relative="1" as="geometry">
            <mxPoint x="-15" y="-10" as="offset" />
          </mxGeometry>
        </mxCell>
        <mxCell id="043abNqkf14DGO-CQPDc-42" value="" style="endArrow=none;html=1;rounded=0;exitX=1;exitY=0.5;exitDx=0;exitDy=0;entryX=0.25;entryY=1;entryDx=0;entryDy=0;" edge="1" parent="1" source="043abNqkf14DGO-CQPDc-60" target="043abNqkf14DGO-CQPDc-2">
          <mxGeometry relative="1" as="geometry">
            <mxPoint x="570" y="640" as="sourcePoint" />
            <mxPoint x="500" y="430" as="targetPoint" />
          </mxGeometry>
        </mxCell>
        <mxCell id="043abNqkf14DGO-CQPDc-43" value="Name" style="ellipse;whiteSpace=wrap;html=1;align=center;" vertex="1" parent="1">
          <mxGeometry x="480" y="680" width="100" height="40" as="geometry" />
        </mxCell>
        <mxCell id="043abNqkf14DGO-CQPDc-44" value="&lt;meta charset=&quot;utf-8&quot;&gt;Category" style="ellipse;whiteSpace=wrap;html=1;align=center;" vertex="1" parent="1">
          <mxGeometry x="530" y="740" width="100" height="40" as="geometry" />
        </mxCell>
        <mxCell id="043abNqkf14DGO-CQPDc-45" value="Location" style="ellipse;whiteSpace=wrap;html=1;align=center;" vertex="1" parent="1">
          <mxGeometry x="740" y="490" width="100" height="40" as="geometry" />
        </mxCell>
        <mxCell id="043abNqkf14DGO-CQPDc-46" value="&lt;meta charset=&quot;utf-8&quot;&gt;Date" style="ellipse;whiteSpace=wrap;html=1;align=center;" vertex="1" parent="1">
          <mxGeometry x="740" y="640" width="100" height="40" as="geometry" />
        </mxCell>
        <mxCell id="043abNqkf14DGO-CQPDc-47" value="&lt;meta charset=&quot;utf-8&quot;&gt;Rate" style="ellipse;whiteSpace=wrap;html=1;align=center;dashed=1;" vertex="1" parent="1">
          <mxGeometry x="730" y="765" width="100" height="40" as="geometry" />
        </mxCell>
        <mxCell id="043abNqkf14DGO-CQPDc-49" value="&lt;meta charset=&quot;utf-8&quot;&gt;Maximum No of Tour&#xa;Members" style="ellipse;whiteSpace=wrap;html=1;align=center;" vertex="1" parent="1">
          <mxGeometry x="590" y="805" width="150" height="70" as="geometry" />
        </mxCell>
        <mxCell id="043abNqkf14DGO-CQPDc-52" value="" style="endArrow=none;html=1;rounded=0;exitX=1;exitY=0.5;exitDx=0;exitDy=0;entryX=0.25;entryY=1;entryDx=0;entryDy=0;" edge="1" parent="1" source="043abNqkf14DGO-CQPDc-43" target="043abNqkf14DGO-CQPDc-2">
          <mxGeometry relative="1" as="geometry">
            <mxPoint x="420" y="500" as="sourcePoint" />
            <mxPoint x="580" y="500" as="targetPoint" />
          </mxGeometry>
        </mxCell>
        <mxCell id="043abNqkf14DGO-CQPDc-53" value="" style="endArrow=none;html=1;rounded=0;exitX=1;exitY=0;exitDx=0;exitDy=0;entryX=0.367;entryY=0.988;entryDx=0;entryDy=0;entryPerimeter=0;" edge="1" parent="1" source="043abNqkf14DGO-CQPDc-44" target="043abNqkf14DGO-CQPDc-2">
          <mxGeometry relative="1" as="geometry">
            <mxPoint x="420" y="500" as="sourcePoint" />
            <mxPoint x="690" y="600" as="targetPoint" />
          </mxGeometry>
        </mxCell>
        <mxCell id="043abNqkf14DGO-CQPDc-54" value="" style="endArrow=none;html=1;rounded=0;exitX=0.5;exitY=0;exitDx=0;exitDy=0;entryX=0.5;entryY=1;entryDx=0;entryDy=0;" edge="1" parent="1" source="043abNqkf14DGO-CQPDc-49" target="043abNqkf14DGO-CQPDc-2">
          <mxGeometry relative="1" as="geometry">
            <mxPoint x="420" y="500" as="sourcePoint" />
            <mxPoint x="580" y="500" as="targetPoint" />
          </mxGeometry>
        </mxCell>
        <mxCell id="043abNqkf14DGO-CQPDc-55" value="" style="endArrow=none;html=1;rounded=0;exitX=0;exitY=0;exitDx=0;exitDy=0;entryX=0.5;entryY=1;entryDx=0;entryDy=0;" edge="1" parent="1" source="043abNqkf14DGO-CQPDc-47" target="043abNqkf14DGO-CQPDc-2">
          <mxGeometry relative="1" as="geometry">
            <mxPoint x="420" y="500" as="sourcePoint" />
            <mxPoint x="580" y="500" as="targetPoint" />
          </mxGeometry>
        </mxCell>
        <mxCell id="043abNqkf14DGO-CQPDc-56" value="" style="endArrow=none;html=1;rounded=0;entryX=0;entryY=0;entryDx=0;entryDy=0;exitX=0.75;exitY=1;exitDx=0;exitDy=0;" edge="1" parent="1" source="043abNqkf14DGO-CQPDc-2" target="043abNqkf14DGO-CQPDc-46">
          <mxGeometry relative="1" as="geometry">
            <mxPoint x="420" y="500" as="sourcePoint" />
            <mxPoint x="580" y="500" as="targetPoint" />
          </mxGeometry>
        </mxCell>
        <mxCell id="043abNqkf14DGO-CQPDc-57" value="" style="endArrow=none;html=1;rounded=0;exitX=1;exitY=1;exitDx=0;exitDy=0;entryX=1;entryY=0;entryDx=0;entryDy=0;" edge="1" parent="1" source="043abNqkf14DGO-CQPDc-45" target="043abNqkf14DGO-CQPDc-2">
          <mxGeometry relative="1" as="geometry">
            <mxPoint x="420" y="500" as="sourcePoint" />
            <mxPoint x="580" y="500" as="targetPoint" />
          </mxGeometry>
        </mxCell>
        <mxCell id="043abNqkf14DGO-CQPDc-58" value="Name" style="ellipse;whiteSpace=wrap;html=1;align=center;" vertex="1" parent="1">
          <mxGeometry x="60" y="985" width="100" height="40" as="geometry" />
        </mxCell>
        <mxCell id="043abNqkf14DGO-CQPDc-59" value="Number" style="ellipse;whiteSpace=wrap;html=1;align=center;fontStyle=4;" vertex="1" parent="1">
          <mxGeometry x="130" y="1050" width="100" height="40" as="geometry" />
        </mxCell>
        <mxCell id="043abNqkf14DGO-CQPDc-60" value="ID" style="ellipse;whiteSpace=wrap;html=1;align=center;fontStyle=4;" vertex="1" parent="1">
          <mxGeometry x="470" y="620" width="100" height="40" as="geometry" />
        </mxCell>
        <mxCell id="043abNqkf14DGO-CQPDc-61" value="Address" style="ellipse;whiteSpace=wrap;html=1;align=center;" vertex="1" parent="1">
          <mxGeometry x="260" y="1060" width="100" height="40" as="geometry" />
        </mxCell>
        <mxCell id="043abNqkf14DGO-CQPDc-63" value="&lt;meta charset=&quot;utf-8&quot;&gt;Telephone" style="ellipse;shape=doubleEllipse;margin=3;whiteSpace=wrap;html=1;align=center;" vertex="1" parent="1">
          <mxGeometry x="390" y="1050" width="100" height="40" as="geometry" />
        </mxCell>
        <mxCell id="043abNqkf14DGO-CQPDc-65" value="&lt;meta charset=&quot;utf-8&quot;&gt;Number of Rooms" style="ellipse;whiteSpace=wrap;html=1;align=center;" vertex="1" parent="1">
          <mxGeometry x="480" y="975" width="130" height="50" as="geometry" />
        </mxCell>
        <mxCell id="043abNqkf14DGO-CQPDc-66" value="&lt;meta charset=&quot;utf-8&quot;&gt;Room&#xa;Rent " style="ellipse;whiteSpace=wrap;html=1;align=center;" vertex="1" parent="1">
          <mxGeometry x="90" y="920" width="100" height="40" as="geometry" />
        </mxCell>
        <mxCell id="043abNqkf14DGO-CQPDc-68" value="&lt;meta charset=&quot;utf-8&quot;&gt;Facilities" style="ellipse;shape=doubleEllipse;margin=3;whiteSpace=wrap;html=1;align=center;" vertex="1" parent="1">
          <mxGeometry x="430" y="920" width="100" height="40" as="geometry" />
        </mxCell>
        <mxCell id="043abNqkf14DGO-CQPDc-69" value="" style="endArrow=none;html=1;rounded=0;exitX=1;exitY=0.5;exitDx=0;exitDy=0;entryX=0;entryY=0.5;entryDx=0;entryDy=0;" edge="1" parent="1" source="043abNqkf14DGO-CQPDc-66" target="043abNqkf14DGO-CQPDc-18">
          <mxGeometry relative="1" as="geometry">
            <mxPoint x="410" y="770" as="sourcePoint" />
            <mxPoint x="570" y="770" as="targetPoint" />
          </mxGeometry>
        </mxCell>
        <mxCell id="043abNqkf14DGO-CQPDc-70" value="" style="endArrow=none;html=1;rounded=0;exitX=1;exitY=0.5;exitDx=0;exitDy=0;entryX=0;entryY=1;entryDx=0;entryDy=0;" edge="1" parent="1" source="043abNqkf14DGO-CQPDc-58" target="043abNqkf14DGO-CQPDc-18">
          <mxGeometry relative="1" as="geometry">
            <mxPoint x="410" y="770" as="sourcePoint" />
            <mxPoint x="570" y="770" as="targetPoint" />
          </mxGeometry>
        </mxCell>
        <mxCell id="043abNqkf14DGO-CQPDc-71" value="" style="endArrow=none;html=1;rounded=0;exitX=1;exitY=0;exitDx=0;exitDy=0;entryX=0.25;entryY=1;entryDx=0;entryDy=0;" edge="1" parent="1" source="043abNqkf14DGO-CQPDc-59" target="043abNqkf14DGO-CQPDc-18">
          <mxGeometry relative="1" as="geometry">
            <mxPoint x="410" y="770" as="sourcePoint" />
            <mxPoint x="570" y="770" as="targetPoint" />
          </mxGeometry>
        </mxCell>
        <mxCell id="043abNqkf14DGO-CQPDc-72" value="" style="endArrow=none;html=1;rounded=0;exitX=0.5;exitY=0;exitDx=0;exitDy=0;entryX=0.5;entryY=1;entryDx=0;entryDy=0;" edge="1" parent="1" source="043abNqkf14DGO-CQPDc-61" target="043abNqkf14DGO-CQPDc-18">
          <mxGeometry relative="1" as="geometry">
            <mxPoint x="410" y="770" as="sourcePoint" />
            <mxPoint x="570" y="770" as="targetPoint" />
          </mxGeometry>
        </mxCell>
        <mxCell id="043abNqkf14DGO-CQPDc-73" value="" style="endArrow=none;html=1;rounded=0;exitX=0;exitY=0;exitDx=0;exitDy=0;entryX=0.75;entryY=1;entryDx=0;entryDy=0;" edge="1" parent="1" source="043abNqkf14DGO-CQPDc-63" target="043abNqkf14DGO-CQPDc-18">
          <mxGeometry relative="1" as="geometry">
            <mxPoint x="410" y="770" as="sourcePoint" />
            <mxPoint x="570" y="770" as="targetPoint" />
          </mxGeometry>
        </mxCell>
        <mxCell id="043abNqkf14DGO-CQPDc-74" value="" style="endArrow=none;html=1;rounded=0;exitX=1;exitY=0.5;exitDx=0;exitDy=0;entryX=0;entryY=0.5;entryDx=0;entryDy=0;" edge="1" parent="1" source="043abNqkf14DGO-CQPDc-18" target="043abNqkf14DGO-CQPDc-68">
          <mxGeometry relative="1" as="geometry">
            <mxPoint x="410" y="770" as="sourcePoint" />
            <mxPoint x="570" y="770" as="targetPoint" />
          </mxGeometry>
        </mxCell>
        <mxCell id="043abNqkf14DGO-CQPDc-75" value="" style="endArrow=none;html=1;rounded=0;exitX=1;exitY=1;exitDx=0;exitDy=0;entryX=0;entryY=0.5;entryDx=0;entryDy=0;" edge="1" parent="1" source="043abNqkf14DGO-CQPDc-18" target="043abNqkf14DGO-CQPDc-65">
          <mxGeometry relative="1" as="geometry">
            <mxPoint x="410" y="770" as="sourcePoint" />
            <mxPoint x="570" y="770" as="targetPoint" />
          </mxGeometry>
        </mxCell>
        <mxCell id="043abNqkf14DGO-CQPDc-77" value="&lt;meta charset=&quot;utf-8&quot;&gt;ID" style="ellipse;whiteSpace=wrap;html=1;align=center;fontStyle=4;" vertex="1" parent="1">
          <mxGeometry x="20" y="460" width="100" height="40" as="geometry" />
        </mxCell>
        <mxCell id="043abNqkf14DGO-CQPDc-78" value="&lt;meta charset=&quot;utf-8&quot;&gt;Name" style="ellipse;whiteSpace=wrap;html=1;align=center;" vertex="1" parent="1">
          <mxGeometry x="150" y="450" width="100" height="40" as="geometry" />
        </mxCell>
        <mxCell id="043abNqkf14DGO-CQPDc-79" value="Telephone" style="ellipse;whiteSpace=wrap;html=1;align=center;" vertex="1" parent="1">
          <mxGeometry x="10" y="530" width="100" height="40" as="geometry" />
        </mxCell>
        <mxCell id="043abNqkf14DGO-CQPDc-80" value="&lt;meta charset=&quot;utf-8&quot;&gt;Address" style="ellipse;whiteSpace=wrap;html=1;align=center;" vertex="1" parent="1">
          <mxGeometry x="250" y="500" width="100" height="40" as="geometry" />
        </mxCell>
        <mxCell id="043abNqkf14DGO-CQPDc-82" value="&lt;meta charset=&quot;utf-8&quot;&gt;Qualifications" style="ellipse;shape=doubleEllipse;margin=3;whiteSpace=wrap;html=1;align=center;" vertex="1" parent="1">
          <mxGeometry x="20" y="590" width="100" height="40" as="geometry" />
        </mxCell>
        <mxCell id="043abNqkf14DGO-CQPDc-83" value="" style="endArrow=none;html=1;rounded=0;entryX=0;entryY=0.5;entryDx=0;entryDy=0;exitX=1;exitY=0.5;exitDx=0;exitDy=0;" edge="1" parent="1" source="043abNqkf14DGO-CQPDc-82" target="043abNqkf14DGO-CQPDc-10">
          <mxGeometry relative="1" as="geometry">
            <mxPoint x="180" y="680" as="sourcePoint" />
            <mxPoint x="340" y="680" as="targetPoint" />
          </mxGeometry>
        </mxCell>
        <mxCell id="043abNqkf14DGO-CQPDc-85" value="" style="endArrow=none;html=1;rounded=0;exitX=1;exitY=0.5;exitDx=0;exitDy=0;entryX=0;entryY=0.25;entryDx=0;entryDy=0;" edge="1" parent="1" source="043abNqkf14DGO-CQPDc-79" target="043abNqkf14DGO-CQPDc-10">
          <mxGeometry relative="1" as="geometry">
            <mxPoint x="180" y="680" as="sourcePoint" />
            <mxPoint x="340" y="680" as="targetPoint" />
          </mxGeometry>
        </mxCell>
        <mxCell id="043abNqkf14DGO-CQPDc-86" value="" style="endArrow=none;html=1;rounded=0;exitX=1;exitY=1;exitDx=0;exitDy=0;entryX=0.25;entryY=0;entryDx=0;entryDy=0;" edge="1" parent="1" source="043abNqkf14DGO-CQPDc-77" target="043abNqkf14DGO-CQPDc-10">
          <mxGeometry relative="1" as="geometry">
            <mxPoint x="180" y="680" as="sourcePoint" />
            <mxPoint x="340" y="680" as="targetPoint" />
          </mxGeometry>
        </mxCell>
        <mxCell id="043abNqkf14DGO-CQPDc-87" value="" style="endArrow=none;html=1;rounded=0;entryX=0.5;entryY=0;entryDx=0;entryDy=0;" edge="1" parent="1" source="043abNqkf14DGO-CQPDc-78" target="043abNqkf14DGO-CQPDc-10">
          <mxGeometry relative="1" as="geometry">
            <mxPoint x="180" y="680" as="sourcePoint" />
            <mxPoint x="340" y="680" as="targetPoint" />
          </mxGeometry>
        </mxCell>
        <mxCell id="043abNqkf14DGO-CQPDc-88" value="" style="endArrow=none;html=1;rounded=0;exitX=0;exitY=0.5;exitDx=0;exitDy=0;entryX=0.75;entryY=0;entryDx=0;entryDy=0;" edge="1" parent="1" source="043abNqkf14DGO-CQPDc-80" target="043abNqkf14DGO-CQPDc-10">
          <mxGeometry relative="1" as="geometry">
            <mxPoint x="180" y="680" as="sourcePoint" />
            <mxPoint x="340" y="680" as="targetPoint" />
          </mxGeometry>
        </mxCell>
        <mxCell id="043abNqkf14DGO-CQPDc-90" value="&lt;meta charset=&quot;utf-8&quot;&gt;ID" style="ellipse;whiteSpace=wrap;html=1;align=center;fontStyle=4;" vertex="1" parent="1">
          <mxGeometry x="560" y="20" width="100" height="40" as="geometry" />
        </mxCell>
        <mxCell id="043abNqkf14DGO-CQPDc-92" value="&lt;meta charset=&quot;utf-8&quot;&gt;Name" style="ellipse;whiteSpace=wrap;html=1;align=center;" vertex="1" parent="1">
          <mxGeometry x="670" y="10" width="100" height="40" as="geometry" />
        </mxCell>
        <mxCell id="043abNqkf14DGO-CQPDc-95" value="Address" style="ellipse;whiteSpace=wrap;html=1;align=center;" vertex="1" parent="1">
          <mxGeometry x="600" y="230" width="100" height="40" as="geometry" />
        </mxCell>
        <mxCell id="043abNqkf14DGO-CQPDc-96" value="&lt;meta charset=&quot;utf-8&quot;&gt;Telephone" style="ellipse;whiteSpace=wrap;html=1;align=center;" vertex="1" parent="1">
          <mxGeometry x="740" y="220" width="100" height="40" as="geometry" />
        </mxCell>
        <mxCell id="043abNqkf14DGO-CQPDc-97" value="&lt;meta charset=&quot;utf-8&quot;&gt;Date of Birth" style="ellipse;whiteSpace=wrap;html=1;align=center;" vertex="1" parent="1">
          <mxGeometry x="530" y="80" width="100" height="40" as="geometry" />
        </mxCell>
        <mxCell id="043abNqkf14DGO-CQPDc-99" value="&amp;nbsp;Start Date" style="ellipse;whiteSpace=wrap;html=1;align=center;" vertex="1" parent="1">
          <mxGeometry x="740" y="60" width="100" height="40" as="geometry" />
        </mxCell>
        <mxCell id="043abNqkf14DGO-CQPDc-101" value="Special&lt;br/&gt;Training Areas" style="ellipse;shape=doubleEllipse;margin=3;whiteSpace=wrap;html=1;align=center;" vertex="1" parent="1">
          <mxGeometry x="510" y="150" width="130" height="60" as="geometry" />
        </mxCell>
        <mxCell id="043abNqkf14DGO-CQPDc-103" value="" style="endArrow=none;html=1;rounded=0;entryX=0.25;entryY=1;entryDx=0;entryDy=0;exitX=0.5;exitY=0;exitDx=0;exitDy=0;" edge="1" parent="1" source="043abNqkf14DGO-CQPDc-95" target="043abNqkf14DGO-CQPDc-24">
          <mxGeometry relative="1" as="geometry">
            <mxPoint x="450" y="180" as="sourcePoint" />
            <mxPoint x="610" y="180" as="targetPoint" />
          </mxGeometry>
        </mxCell>
        <mxCell id="043abNqkf14DGO-CQPDc-104" value="" style="endArrow=none;html=1;rounded=0;entryX=0;entryY=0.5;entryDx=0;entryDy=0;exitX=1;exitY=0;exitDx=0;exitDy=0;" edge="1" parent="1" source="043abNqkf14DGO-CQPDc-101" target="043abNqkf14DGO-CQPDc-24">
          <mxGeometry relative="1" as="geometry">
            <mxPoint x="450" y="180" as="sourcePoint" />
            <mxPoint x="610" y="180" as="targetPoint" />
          </mxGeometry>
        </mxCell>
        <mxCell id="043abNqkf14DGO-CQPDc-105" value="" style="endArrow=none;html=1;rounded=0;entryX=0.25;entryY=0;entryDx=0;entryDy=0;exitX=1;exitY=0.5;exitDx=0;exitDy=0;" edge="1" parent="1" source="043abNqkf14DGO-CQPDc-97" target="043abNqkf14DGO-CQPDc-24">
          <mxGeometry relative="1" as="geometry">
            <mxPoint x="450" y="180" as="sourcePoint" />
            <mxPoint x="610" y="180" as="targetPoint" />
          </mxGeometry>
        </mxCell>
        <mxCell id="043abNqkf14DGO-CQPDc-106" value="" style="endArrow=none;html=1;rounded=0;entryX=0.5;entryY=0;entryDx=0;entryDy=0;exitX=1;exitY=1;exitDx=0;exitDy=0;" edge="1" parent="1" source="043abNqkf14DGO-CQPDc-90" target="043abNqkf14DGO-CQPDc-24">
          <mxGeometry relative="1" as="geometry">
            <mxPoint x="450" y="180" as="sourcePoint" />
            <mxPoint x="610" y="180" as="targetPoint" />
          </mxGeometry>
        </mxCell>
        <mxCell id="043abNqkf14DGO-CQPDc-107" value="" style="endArrow=none;html=1;rounded=0;entryX=0.5;entryY=0;entryDx=0;entryDy=0;exitX=1;exitY=0.75;exitDx=0;exitDy=0;" edge="1" parent="1" source="043abNqkf14DGO-CQPDc-24" target="043abNqkf14DGO-CQPDc-96">
          <mxGeometry relative="1" as="geometry">
            <mxPoint x="450" y="180" as="sourcePoint" />
            <mxPoint x="610" y="180" as="targetPoint" />
          </mxGeometry>
        </mxCell>
        <mxCell id="043abNqkf14DGO-CQPDc-108" value="" style="endArrow=none;html=1;rounded=0;exitX=0.5;exitY=1;exitDx=0;exitDy=0;entryX=0.75;entryY=0;entryDx=0;entryDy=0;" edge="1" parent="1" source="043abNqkf14DGO-CQPDc-92" target="043abNqkf14DGO-CQPDc-24">
          <mxGeometry relative="1" as="geometry">
            <mxPoint x="450" y="180" as="sourcePoint" />
            <mxPoint x="610" y="180" as="targetPoint" />
          </mxGeometry>
        </mxCell>
        <mxCell id="043abNqkf14DGO-CQPDc-109" value="" style="endArrow=none;html=1;rounded=0;entryX=0.5;entryY=1;entryDx=0;entryDy=0;exitX=1;exitY=0;exitDx=0;exitDy=0;" edge="1" parent="1" source="043abNqkf14DGO-CQPDc-24" target="043abNqkf14DGO-CQPDc-99">
          <mxGeometry relative="1" as="geometry">
            <mxPoint x="450" y="180" as="sourcePoint" />
            <mxPoint x="610" y="180" as="targetPoint" />
          </mxGeometry>
        </mxCell>
        <mxCell id="043abNqkf14DGO-CQPDc-110" value="&lt;meta charset=&quot;utf-8&quot;&gt;Code" style="ellipse;whiteSpace=wrap;html=1;align=center;fontStyle=4;" vertex="1" parent="1">
          <mxGeometry x="300" y="30" width="100" height="40" as="geometry" />
        </mxCell>
        <mxCell id="043abNqkf14DGO-CQPDc-112" value="&lt;meta charset=&quot;utf-8&quot;&gt;Description" style="ellipse;whiteSpace=wrap;html=1;align=center;" vertex="1" parent="1">
          <mxGeometry x="440" y="30" width="100" height="40" as="geometry" />
        </mxCell>
        <mxCell id="043abNqkf14DGO-CQPDc-114" value="&lt;meta charset=&quot;utf-8&quot;&gt;Rent Rate" style="ellipse;whiteSpace=wrap;html=1;align=center;" vertex="1" parent="1">
          <mxGeometry x="325" y="210" width="100" height="40" as="geometry" />
        </mxCell>
        <mxCell id="043abNqkf14DGO-CQPDc-116" value="&lt;meta charset=&quot;utf-8&quot;&gt;Quantity in Hand" style="ellipse;whiteSpace=wrap;html=1;align=center;" vertex="1" parent="1">
          <mxGeometry x="440" y="220" width="100" height="40" as="geometry" />
        </mxCell>
        <mxCell id="043abNqkf14DGO-CQPDc-118" value="" style="endArrow=none;html=1;rounded=0;entryX=0.25;entryY=0;entryDx=0;entryDy=0;exitX=0.5;exitY=1;exitDx=0;exitDy=0;" edge="1" parent="1" source="043abNqkf14DGO-CQPDc-110" target="043abNqkf14DGO-CQPDc-35">
          <mxGeometry relative="1" as="geometry">
            <mxPoint x="270" y="50" as="sourcePoint" />
            <mxPoint x="430" y="50" as="targetPoint" />
          </mxGeometry>
        </mxCell>
        <mxCell id="043abNqkf14DGO-CQPDc-119" value="" style="endArrow=none;html=1;rounded=0;entryX=0.5;entryY=1;entryDx=0;entryDy=0;exitX=0.5;exitY=0;exitDx=0;exitDy=0;" edge="1" parent="1" source="043abNqkf14DGO-CQPDc-35" target="043abNqkf14DGO-CQPDc-112">
          <mxGeometry relative="1" as="geometry">
            <mxPoint x="270" y="50" as="sourcePoint" />
            <mxPoint x="430" y="50" as="targetPoint" />
          </mxGeometry>
        </mxCell>
        <mxCell id="043abNqkf14DGO-CQPDc-120" value="" style="endArrow=none;html=1;rounded=0;exitX=0.5;exitY=0;exitDx=0;exitDy=0;entryX=0.25;entryY=1;entryDx=0;entryDy=0;" edge="1" parent="1" source="043abNqkf14DGO-CQPDc-114" target="043abNqkf14DGO-CQPDc-35">
          <mxGeometry relative="1" as="geometry">
            <mxPoint x="270" y="50" as="sourcePoint" />
            <mxPoint x="430" y="50" as="targetPoint" />
          </mxGeometry>
        </mxCell>
        <mxCell id="043abNqkf14DGO-CQPDc-121" value="" style="endArrow=none;html=1;rounded=0;entryX=0.5;entryY=0;entryDx=0;entryDy=0;exitX=0.75;exitY=1;exitDx=0;exitDy=0;" edge="1" parent="1" source="043abNqkf14DGO-CQPDc-35" target="043abNqkf14DGO-CQPDc-116">
          <mxGeometry relative="1" as="geometry">
            <mxPoint x="270" y="50" as="sourcePoint" />
            <mxPoint x="430" y="50" as="targetPoint" />
          </mxGeometry>
        </mxCell>
        <mxCell id="043abNqkf14DGO-CQPDc-123" value="ID" style="ellipse;whiteSpace=wrap;html=1;align=center;fontStyle=4;" vertex="1" parent="1">
          <mxGeometry y="30" width="100" height="40" as="geometry" />
        </mxCell>
        <mxCell id="043abNqkf14DGO-CQPDc-125" value="&lt;meta charset=&quot;utf-8&quot;&gt;Name" style="ellipse;whiteSpace=wrap;html=1;align=center;" vertex="1" parent="1">
          <mxGeometry x="110" y="10" width="100" height="40" as="geometry" />
        </mxCell>
        <mxCell id="043abNqkf14DGO-CQPDc-126" value="Address" style="ellipse;whiteSpace=wrap;html=1;align=center;" vertex="1" parent="1">
          <mxGeometry y="250" width="100" height="40" as="geometry" />
        </mxCell>
        <mxCell id="043abNqkf14DGO-CQPDc-127" value="No. of Guests" style="ellipse;whiteSpace=wrap;html=1;align=center;" vertex="1" parent="1">
          <mxGeometry x="140" y="250" width="100" height="40" as="geometry" />
        </mxCell>
        <mxCell id="043abNqkf14DGO-CQPDc-128" value="Telephone" style="ellipse;whiteSpace=wrap;html=1;align=center;" vertex="1" parent="1">
          <mxGeometry x="70" y="290" width="100" height="40" as="geometry" />
        </mxCell>
        <mxCell id="043abNqkf14DGO-CQPDc-130" value="Tour preference" style="ellipse;whiteSpace=wrap;html=1;align=center;" vertex="1" parent="1">
          <mxGeometry x="180" y="60" width="100" height="40" as="geometry" />
        </mxCell>
        <mxCell id="043abNqkf14DGO-CQPDc-131" value="" style="endArrow=none;html=1;rounded=0;exitX=0;exitY=1;exitDx=0;exitDy=0;entryX=0.165;entryY=-0.025;entryDx=0;entryDy=0;entryPerimeter=0;" edge="1" parent="1" source="043abNqkf14DGO-CQPDc-123" target="043abNqkf14DGO-CQPDc-1">
          <mxGeometry relative="1" as="geometry">
            <mxPoint x="120" y="80" as="sourcePoint" />
            <mxPoint x="280" y="80" as="targetPoint" />
          </mxGeometry>
        </mxCell>
        <mxCell id="043abNqkf14DGO-CQPDc-132" value="" style="endArrow=none;html=1;rounded=0;exitX=0;exitY=1;exitDx=0;exitDy=0;entryX=0.415;entryY=-0.075;entryDx=0;entryDy=0;entryPerimeter=0;" edge="1" parent="1" source="043abNqkf14DGO-CQPDc-125" target="043abNqkf14DGO-CQPDc-1">
          <mxGeometry relative="1" as="geometry">
            <mxPoint x="120" y="80" as="sourcePoint" />
            <mxPoint x="280" y="80" as="targetPoint" />
          </mxGeometry>
        </mxCell>
        <mxCell id="043abNqkf14DGO-CQPDc-133" value="" style="endArrow=none;html=1;rounded=0;exitX=0.75;exitY=0;exitDx=0;exitDy=0;entryX=0;entryY=0.5;entryDx=0;entryDy=0;" edge="1" parent="1" source="043abNqkf14DGO-CQPDc-1" target="043abNqkf14DGO-CQPDc-130">
          <mxGeometry relative="1" as="geometry">
            <mxPoint x="120" y="80" as="sourcePoint" />
            <mxPoint x="280" y="80" as="targetPoint" />
          </mxGeometry>
        </mxCell>
        <mxCell id="043abNqkf14DGO-CQPDc-134" value="" style="endArrow=none;html=1;rounded=0;exitX=0.275;exitY=-0.025;exitDx=0;exitDy=0;exitPerimeter=0;entryX=0.25;entryY=1;entryDx=0;entryDy=0;" edge="1" parent="1" source="043abNqkf14DGO-CQPDc-126" target="043abNqkf14DGO-CQPDc-1">
          <mxGeometry relative="1" as="geometry">
            <mxPoint x="120" y="80" as="sourcePoint" />
            <mxPoint x="280" y="80" as="targetPoint" />
          </mxGeometry>
        </mxCell>
        <mxCell id="043abNqkf14DGO-CQPDc-135" value="" style="endArrow=none;html=1;rounded=0;exitX=0.5;exitY=0;exitDx=0;exitDy=0;entryX=0.5;entryY=1;entryDx=0;entryDy=0;" edge="1" parent="1" source="043abNqkf14DGO-CQPDc-128" target="043abNqkf14DGO-CQPDc-1">
          <mxGeometry relative="1" as="geometry">
            <mxPoint x="120" y="80" as="sourcePoint" />
            <mxPoint x="280" y="80" as="targetPoint" />
          </mxGeometry>
        </mxCell>
        <mxCell id="043abNqkf14DGO-CQPDc-136" value="" style="endArrow=none;html=1;rounded=0;exitX=0.5;exitY=0;exitDx=0;exitDy=0;entryX=0.75;entryY=1;entryDx=0;entryDy=0;" edge="1" parent="1" source="043abNqkf14DGO-CQPDc-127" target="043abNqkf14DGO-CQPDc-1">
          <mxGeometry relative="1" as="geometry">
            <mxPoint x="120" y="80" as="sourcePoint" />
            <mxPoint x="280" y="80" as="targetPoint" />
          </mxGeometry>
        </mxCell>
      </root>
    </mxGraphModel>
  </diagram>
</mxfile>
